# xmcd CD database file
#
# Track frame offsets:
#	150
#	16569
#	30201
#	45972
#	62241
#	75326
#	100036
#	125110
#	137813
#	152880
#	166496
#	185333
#	200533
#	219909
#	234019
#	249741
#	270782
#	288448
#	313171
#	327749
#	341253
#
# Disc length: 4775 seconds
#
# Revision: 0
# Processed by: cddbd v1.5.2PL0 Copyright (c) Steve Scherf et al.
# Submitted via: CDex 1.70beta2
#
DISCID=1512a515
DTITLE=Various Artist - The Story Of Big Bands 1914 - 1955 (10)
DYEAR=2006
DGENRE=Jazz
TTITLE0=The Gerry Mulligan Tentette, Walking Shoes
TTITLE1=Shorty Rogers And His Orchestra, Coop De Graas
TTITLE2=Shorty Rogers And His Orchestra, Chiquito Loco
TTITLE3=Charlie Parker With Dave Lambert, Old Folks
TTITLE4=Woody Herman And The New Third Herd, Four Others
TTITLE5=Clifford Brown-Art Farmer, Stockholm Sweetnin'
TTITLE6=Duke Ellington And His Orchestra, Happy Go Lucky Local
TTITLE7=Stan Kenton And His Orchestra, Lover Man
TTITLE8=Shorty Rogers And His Orchestra, Taps Miller
TTITLE9=Count Basie And His Orchestra, Sixteen Men Swingin'
TTITLE10=Leith Stevens Orchestra, havanna Interlude
TTITLE11=Count Basie And His Orchestra, You For Me
TTITLE12=The Sauter-Finegan Orchestra, The Loop
TTITLE13=Benny Goodman And His Orchestra, Jersey Bounce
TTITLE14=Jazz Groupe De Paris, Paradoxe II
TTITLE15=Ralph Burns Among The JATP'S, Sprang
TTITLE16=Duke Ellington And His Orchestra, Harlem Air Shaft
TTITLE17=Woody Herman And His Orchestra, Opus De Funk
TTITLE18=Stan kenton And His Orchestra, Sunset Tower
TTITLE19=Harry James And His Orchestra, Two O'Clock Jump
TTITLE20=Billy Byers, Chinese Water Torture
EXTD=YEAR: 2006
EXTT0=
EXTT1=
EXTT2=
EXTT3=
EXTT4=
EXTT5=
EXTT6=
EXTT7=
EXTT8=
EXTT9=
EXTT10=
EXTT11=
EXTT12=
EXTT13=
EXTT14=
EXTT15=
EXTT16=
EXTT17=
EXTT18=
EXTT19=
EXTT20=
PLAYORDER=
